<svg width="35" height="25" viewBox="0 0 35 25" fill="none" xmlns="http://www.w3.org/2000/svg">
<path d="M34.0322 18.1689C34.0322 21.3963 32.2403 24.0127 28.7197 24.0127H5.34473C1.82413 24.0127 0.0322266 21.3963 0.0322266 18.1689V6.48145C0.0322266 3.2541 1.82413 0.637695 5.34473 0.637695H28.7197C32.2403 0.637695 34.0322 3.2541 34.0322 6.48145V18.1689Z" fill="#128807"/>
<path d="M30.3879 12.745L17.1119 22.0738L3.83545 12.745L17.1119 3.41626L30.3879 12.745Z" fill="#F9CB38"/>
<path d="M30.3879 12.745L17.1119 22.0738L3.83545 12.745L17.1119 3.41626L30.3879 12.745Z" fill="#F9CB38"/>
<path fill-rule="evenodd" clip-rule="evenodd" d="M22.35 14.3695C21.7454 16.4238 19.8536 17.9878 17.7116 18.2003C14.8498 18.4867 12.346 16.6677 11.7372 13.8558C11.557 13.0295 11.58 12.1718 11.8041 11.3563C11.8875 11.2659 12.0028 11.2442 12.1176 11.2282C12.9546 11.112 13.8007 11.0752 14.6447 11.1183C15.5452 11.1693 16.4382 11.2941 17.3063 11.5395C18.1972 11.7919 19.0599 12.1213 19.8743 12.559C20.4872 12.8846 21.0726 13.2595 21.6248 13.6799C21.8118 13.825 22.0025 13.9673 22.1821 14.1219C22.2623 14.191 22.3255 14.2654 22.35 14.3695Z" fill="#002776"/>
<path fill-rule="evenodd" clip-rule="evenodd" d="M12.1045 10.5249C12.7903 8.99226 13.9469 7.97172 15.5454 7.49254C18.7648 6.52726 22.0676 8.65491 22.5462 11.9731C22.6206 12.4858 22.6238 13 22.5451 13.5137C22.4639 13.544 22.4033 13.501 22.3475 13.4548C21.7641 12.978 21.1416 12.5511 20.4866 12.1787C19.9822 11.8925 19.4581 11.6425 18.9183 11.4307C18.8227 11.393 18.7026 11.3733 18.6697 11.2453C18.7042 11.1837 18.7478 11.13 18.7998 11.0801C18.8184 11.0609 18.8455 11.0423 18.8206 11.0105C18.8121 11.0004 18.7945 11.0004 18.7796 11.002C18.7398 11.0062 18.7451 11.0338 18.7467 11.0631C18.7499 11.1582 18.6946 11.2193 18.6219 11.2681C18.4928 11.2973 18.369 11.2586 18.2643 11.2028C17.9647 11.0455 17.6332 10.9919 17.3161 10.9042C16.8215 10.7698 16.3136 10.6939 15.8068 10.6147C15.4023 10.5501 14.9951 10.5037 14.5865 10.4755C14.2146 10.4495 13.8358 10.4532 13.4613 10.4787C13.0528 10.5074 12.6432 10.5361 12.2368 10.5849C12.2113 10.5887 12.1853 10.585 12.1618 10.5743C12.1384 10.5637 12.1185 10.5465 12.1045 10.5249Z" fill="#002776"/>
<path fill-rule="evenodd" clip-rule="evenodd" d="M18.6738 11.2124C18.6717 11.2772 18.7296 11.2687 18.7647 11.2825C20.1366 11.8162 21.4123 12.5698 22.5419 13.5138C22.5093 13.8052 22.4448 14.0922 22.3496 14.3696C21.685 13.8182 21.0044 13.2928 20.2516 12.8635C17.8722 11.5083 15.3243 10.9712 12.6006 11.2591C12.335 11.2862 12.0693 11.3224 11.8037 11.3548C11.8722 11.0674 11.9594 10.7853 12.1023 10.5239C14.0907 10.2556 16.0447 10.4081 17.962 11.0015C18.2 11.0753 18.4268 11.1943 18.6807 11.2166L18.6738 11.2108" fill="#FEFEFE"/>
<path fill-rule="evenodd" clip-rule="evenodd" d="M21.1491 14.6363C20.9892 14.6193 21.163 14.8154 21.0015 14.8111C20.8607 14.809 20.8532 14.6964 20.7842 14.6337C20.8373 14.5784 20.9313 14.5673 20.9611 14.4812C20.9813 14.572 21.0668 14.5912 21.1491 14.6363Z" fill="#D9DFEA"/>
<path fill-rule="evenodd" clip-rule="evenodd" d="M15.1167 15.619C14.9663 15.6365 15.0922 15.8001 14.9663 15.8028C14.8394 15.8054 14.774 15.7114 14.7485 15.6142C14.7395 15.5866 14.8617 15.5249 14.9217 15.4792C14.9291 15.5754 15.029 15.5712 15.1167 15.619Z" fill="#E9ECF3"/>
<path fill-rule="evenodd" clip-rule="evenodd" d="M17.1065 15.3233C16.8977 15.4582 17.0661 15.1533 16.9434 15.183C16.9832 15.1193 17.0958 15.1341 17.1033 15.0364C17.1564 15.0916 17.2015 15.1554 17.286 15.1671C17.1654 15.1506 17.2966 15.4183 17.1065 15.3233Z" fill="#EDEFF5"/>
<path fill-rule="evenodd" clip-rule="evenodd" d="M12.7925 11.7436C12.7426 11.8387 12.7049 11.945 12.5535 11.8812C12.4759 11.8488 12.5588 11.7426 12.4658 11.7325L12.6379 11.5811C12.6496 11.606 12.6634 11.6299 12.6751 11.6549C12.6889 11.7181 12.8149 11.6342 12.7925 11.7436Z" fill="#F0F2F6"/>
<path fill-rule="evenodd" clip-rule="evenodd" d="M13.2747 14.0518C13.1956 14.0767 13.2524 14.285 13.0824 14.1941C13.0654 14.1856 12.991 14.2266 13.0049 14.2026C13.0495 14.1155 12.9496 14.073 12.965 14.0034C13.058 14.0438 13.0527 13.8738 13.1478 13.9195C13.1547 13.9248 13.1547 13.946 13.1594 13.9599C13.1695 14.0257 13.2981 13.9434 13.2747 14.0518Z" fill="#ECEFF4"/>
<path fill-rule="evenodd" clip-rule="evenodd" d="M12.4391 14.667C12.276 14.7239 12.3977 14.5268 12.3042 14.5284C12.3478 14.4917 12.3966 14.4232 12.4402 14.4259C12.4923 14.4285 12.5401 14.4928 12.5879 14.5294C12.5167 14.5534 12.5916 14.7462 12.4391 14.667Z" fill="#D9DFEA"/>
<path fill-rule="evenodd" clip-rule="evenodd" d="M18.7428 16.5472C18.5702 16.6258 18.738 16.3937 18.6227 16.424C18.6111 16.3353 18.755 16.3889 18.737 16.2954L18.8926 16.4203C18.8294 16.4489 18.8926 16.6296 18.7428 16.5472Z" fill="#D8DEEA"/>
<path fill-rule="evenodd" clip-rule="evenodd" d="M19.8476 16.4192C19.7047 16.4787 19.7924 16.2864 19.7153 16.2672C19.7674 16.2338 19.8221 16.1982 19.8731 16.1636C19.8774 16.2423 19.9852 16.2136 19.9969 16.2832C19.9167 16.2879 20.0001 16.4611 19.8476 16.4192ZM20.8411 15.7041C20.6785 15.7864 20.7986 15.5702 20.7056 15.5793C20.7242 15.5102 20.831 15.5362 20.8373 15.4565L20.9898 15.5708C20.8968 15.5681 21.0111 15.796 20.8411 15.7041Z" fill="#DCE1EC"/>
<path fill-rule="evenodd" clip-rule="evenodd" d="M14.2606 14.7123C14.0906 14.8085 14.2017 14.5933 14.123 14.5891C14.131 14.5099 14.2511 14.5439 14.2564 14.46C14.2723 14.5375 14.3754 14.5152 14.3977 14.5848C14.2962 14.5699 14.4407 14.8138 14.2606 14.7123Z" fill="#D4DAE7"/>
<path fill-rule="evenodd" clip-rule="evenodd" d="M14.9497 13.0984C14.8536 13.092 14.9768 12.9406 14.8589 12.9502C14.8791 12.8652 14.9699 12.8827 15.0199 12.8386C15.0454 12.8923 15.1176 12.9045 15.1213 12.9815C15.1298 13.1223 15.005 13.0495 14.9497 13.0984Z" fill="#F2F4F7"/>
<path fill-rule="evenodd" clip-rule="evenodd" d="M17.7494 14.2202C17.6023 14.3047 17.6798 14.1161 17.6118 14.0953C17.658 14.0571 17.7027 14.0183 17.7494 13.979C17.7526 14.0576 17.9029 14.0401 17.8604 14.1007C17.8349 14.1368 17.9173 14.302 17.7494 14.2202Z" fill="#E6E9F1"/>
<path fill-rule="evenodd" clip-rule="evenodd" d="M17.0904 13.747C16.9225 13.764 17.0957 13.6115 16.9868 13.6152C17.0293 13.5754 17.0702 13.5074 17.118 13.5031C17.1595 13.4989 17.2073 13.5663 17.2524 13.6035C17.1935 13.6604 17.2025 13.807 17.0904 13.747Z" fill="#EAEDF3"/>
<path fill-rule="evenodd" clip-rule="evenodd" d="M21.1664 14.9868C21.2009 15.0782 21.2689 15.0904 21.322 15.1228C21.2678 15.1839 21.2466 15.2774 21.134 15.2774C21.0187 15.2785 21.0968 15.1908 21.0707 15.1499C21.0065 15.0479 21.2439 15.134 21.1664 14.9868Z" fill="#E4E8F0"/>
<path fill-rule="evenodd" clip-rule="evenodd" d="M19.9637 16.8377C19.9233 16.8977 19.9509 16.9551 19.8436 16.9572C19.7209 16.9593 19.7602 16.8695 19.7549 16.8419C19.7448 16.7962 19.8149 16.7527 19.8553 16.7617C19.8904 16.7681 19.9584 16.7877 19.9637 16.8377Z" fill="#CED5E4"/>
<path fill-rule="evenodd" clip-rule="evenodd" d="M14.2241 15.1356C14.1364 15.1457 14.2092 15.2605 14.0982 15.2567C13.9967 15.2535 14.0116 15.185 14.0004 15.1436C13.9829 15.0857 14.0684 15.0873 14.0875 15.0437C14.1279 15.0719 14.1688 15.1 14.2241 15.1356Z" fill="#DAE0EB"/>
<path fill-rule="evenodd" clip-rule="evenodd" d="M19.7256 15.7424C19.7633 15.7142 19.801 15.6882 19.8409 15.6616C19.8441 15.7206 19.971 15.6866 19.9285 15.762C19.911 15.7923 19.954 15.8752 19.8441 15.8677C19.7452 15.8608 19.7686 15.7918 19.7256 15.7424Z" fill="#D8DEE9"/>
<path fill-rule="evenodd" clip-rule="evenodd" d="M19.322 15.9246C19.3029 16.0293 19.2434 16.0463 19.1781 16.0585C19.067 16.0771 19.1504 15.9937 19.1324 15.9618C19.0856 15.8821 19.2036 15.8975 19.2174 15.8455C19.2482 15.8858 19.3188 15.8848 19.322 15.9246Z" fill="#CBD2E3"/>
<path fill-rule="evenodd" clip-rule="evenodd" d="M18.7003 12.4795C18.6631 12.497 18.7125 12.5857 18.6328 12.5602C18.5723 12.5395 18.4979 12.5108 18.5032 12.4364C18.5053 12.4078 18.5776 12.3839 18.6179 12.3589C18.6249 12.4125 18.7396 12.395 18.7003 12.4795Z" fill="#D1D8E6"/>
<path fill-rule="evenodd" clip-rule="evenodd" d="M21.7068 14.8095C21.607 14.8488 21.6521 14.7665 21.6346 14.7426C21.5676 14.6517 21.6999 14.665 21.7068 14.6108C21.7477 14.6379 21.8274 14.6687 21.8242 14.6921C21.8219 14.7225 21.8088 14.751 21.7873 14.7726C21.7657 14.7941 21.7372 14.8072 21.7068 14.8095Z" fill="#DADFEA"/>
<path fill-rule="evenodd" clip-rule="evenodd" d="M16.5701 13.9988C16.5701 14.0604 16.6944 14.036 16.6524 14.113C16.6354 14.1443 16.6716 14.2283 16.5855 14.2107C16.5201 14.1975 16.4543 14.1592 16.4521 14.0944C16.4521 14.0641 16.5276 14.0317 16.5701 13.9988Z" fill="#CAD2E2"/>
<path fill-rule="evenodd" clip-rule="evenodd" d="M18.27 15.9208C18.2211 15.8979 18.219 15.8337 18.2222 15.8029C18.2275 15.7619 18.2822 15.7067 18.3289 15.729C18.3576 15.7428 18.4389 15.7348 18.4192 15.8092C18.4012 15.8804 18.33 15.8905 18.27 15.9208Z" fill="#D0D7E5"/>
<path fill-rule="evenodd" clip-rule="evenodd" d="M20.3257 15.8273C20.3278 15.8268 20.365 15.7752 20.407 15.7742C20.4372 15.7731 20.4681 15.8358 20.5005 15.8709C20.4569 15.8831 20.4941 15.9633 20.408 15.9622C20.3305 15.9607 20.3305 15.9256 20.3257 15.8273Z" fill="#EFF2F6"/>
<path fill-rule="evenodd" clip-rule="evenodd" d="M16.908 14.4822C16.8936 14.5396 16.8936 14.5752 16.8426 14.5741C16.7906 14.5731 16.7651 14.554 16.7661 14.5008C16.7661 14.4589 16.7938 14.4296 16.8251 14.4323C16.8612 14.435 16.9128 14.445 16.908 14.4822Z" fill="#CCD4E3"/>
<path fill-rule="evenodd" clip-rule="evenodd" d="M13.6502 13.6555C13.6757 13.6831 13.7049 13.7049 13.7161 13.7331C13.7256 13.7565 13.7108 13.792 13.6778 13.7958C13.6412 13.799 13.6019 13.7979 13.5902 13.7522C13.5795 13.7076 13.6183 13.6916 13.6502 13.6555Z" fill="#E0E5EE"/>
<path fill-rule="evenodd" clip-rule="evenodd" d="M13.2745 14.0519C13.2601 13.9908 13.1656 14.0296 13.1592 13.9595C13.1794 14.0126 13.3371 13.8941 13.2745 14.0519Z" fill="#7085B1"/>
<path fill-rule="evenodd" clip-rule="evenodd" d="M12.7927 11.7435C12.781 11.6782 12.6806 11.7297 12.6753 11.6548C12.7034 11.6994 12.8458 11.5937 12.7927 11.7435Z" fill="#5C75A7"/>
<path fill-rule="evenodd" clip-rule="evenodd" d="M18.6843 11.2181C18.6944 11.1778 18.7268 11.1119 18.7141 11.0997C18.5409 10.9456 18.772 10.9196 18.8065 10.8882C18.8697 10.8271 18.8597 11.0848 19.0265 10.9217C18.9367 11.1209 18.8166 11.1783 18.6785 11.2123L18.6843 11.2181Z" fill="#E7EAF2"/>
<path fill-rule="evenodd" clip-rule="evenodd" d="M13.5635 11.0529C13.3946 11.0364 13.5449 10.8165 13.5083 10.689C13.4626 10.5243 13.5826 10.5264 13.6995 10.5259C13.8807 10.5248 13.9832 10.6013 13.9832 10.7926C13.9827 10.9806 13.8955 11.055 13.5635 11.0529Z" fill="#15A24A"/>
<path fill-rule="evenodd" clip-rule="evenodd" d="M20.0184 12.1143C19.9812 12.228 19.8436 12.2992 19.8203 12.4395C19.8181 12.458 19.765 12.4543 19.7549 12.4001C19.7124 12.1462 19.7103 12.1467 19.5228 12.2827C19.5079 12.2939 19.4818 12.304 19.4675 12.2992C19.4399 12.287 19.4287 12.2594 19.4452 12.228C19.5073 12.1069 19.5658 11.9826 19.6354 11.8652C19.6821 11.7876 19.739 11.8524 19.7847 11.8747C19.8851 11.9241 20.0088 11.9523 20.0184 12.1143Z" fill="#13A248"/>
<path fill-rule="evenodd" clip-rule="evenodd" d="M20.4938 12.5278C20.3961 12.5671 20.3488 12.4933 20.2861 12.4667C20.2436 12.4487 20.2038 12.4317 20.1751 12.4789C20.1437 12.5289 20.1751 12.5576 20.2181 12.5799C20.2511 12.5963 20.2861 12.6091 20.3106 12.6351C20.3536 12.6803 20.4885 12.6681 20.4338 12.7642C20.3908 12.8407 20.3185 12.7515 20.2707 12.7233C20.1884 12.6728 20.0253 12.6452 20.0428 12.5576C20.0699 12.4168 20.1501 12.2638 20.2569 12.1671C20.3424 12.0895 20.437 12.2362 20.5332 12.2728C20.5746 12.2882 20.6452 12.302 20.633 12.3674C20.6213 12.4348 20.5714 12.3955 20.5332 12.3865C20.4434 12.3658 20.3562 12.2138 20.2856 12.319C20.2431 12.3817 20.4179 12.4077 20.4731 12.4768C20.4816 12.4869 20.4837 12.5007 20.4938 12.5278ZM21.6387 13.279C21.6546 13.4033 21.6042 13.4878 21.474 13.4665C21.3391 13.4442 21.2365 13.3619 21.2132 13.2142C21.211 13.1993 21.2291 13.169 21.244 13.1648C21.2525 13.162 21.2616 13.1611 21.2705 13.1622C21.2795 13.1632 21.2881 13.1663 21.2957 13.171C21.3034 13.1758 21.3099 13.1822 21.3148 13.1897C21.3197 13.1973 21.3229 13.2058 21.3242 13.2147C21.3412 13.3162 21.3943 13.3613 21.5011 13.3635C21.5218 13.1972 21.2217 13.1212 21.3943 12.9486C21.4809 12.862 21.5866 12.9337 21.6621 13.0033C21.7317 13.0665 21.8167 13.1361 21.6897 13.2264C21.6716 13.2168 21.6472 13.2014 21.6339 13.2121C21.6068 13.2301 21.6334 13.2562 21.6387 13.279Z" fill="#11A147"/>
<path fill-rule="evenodd" clip-rule="evenodd" d="M17.9693 11.6968C17.9061 11.6612 17.9093 11.6272 17.9194 11.59C17.9396 11.5109 17.8987 11.4694 17.8264 11.4471C17.7542 11.4237 17.6984 11.4269 17.6787 11.5172C17.6718 11.5576 17.6506 11.5858 17.6065 11.5709C17.5555 11.5523 17.581 11.5109 17.5906 11.4806C17.6107 11.411 17.6288 11.3409 17.6607 11.2745C17.6894 11.2081 17.6692 11.0864 17.7738 11.0944C17.8849 11.1023 18.0049 11.1289 18.0894 11.2208C18.1271 11.2612 18.1425 11.3308 18.1117 11.3611C18.0219 11.4535 18.0294 11.5842 17.9693 11.6968Z" fill="#0FA046"/>
<path fill-rule="evenodd" clip-rule="evenodd" d="M14.6907 11.0205C14.5191 11.0853 14.3837 11.0476 14.2514 11.0502C14.1913 11.0518 14.186 11.0066 14.186 10.961C14.1903 10.9105 14.1903 10.8595 14.1903 10.809C14.1967 10.5291 14.296 10.4573 14.5712 10.5354C14.602 10.5439 14.6312 10.5492 14.6333 10.5838C14.6333 10.6316 14.5988 10.6401 14.5563 10.639C14.5505 10.638 14.5436 10.6364 14.5361 10.6374C14.4538 10.6576 14.3061 10.5646 14.3034 10.6879C14.3003 10.7825 14.4612 10.7155 14.5436 10.7474C14.5553 10.7522 14.568 10.7628 14.5861 10.7761C14.534 10.8701 14.4474 10.8175 14.3805 10.8287C14.3406 10.8351 14.2886 10.8175 14.2827 10.8823C14.2753 10.9588 14.3284 10.9551 14.3805 10.9604C14.4692 10.9711 14.5653 10.9376 14.6907 11.0205Z" fill="#0B9F43"/>
<path fill-rule="evenodd" clip-rule="evenodd" d="M13.2803 11.0609C13.1878 11.0407 13.2006 10.9876 13.1846 10.9504C13.157 10.8819 13.1023 10.8819 13.0423 10.8867C12.9737 10.8931 12.9366 10.9196 12.9424 10.9956C12.9466 11.0328 12.9615 11.0928 12.8925 11.0843C12.833 11.0769 12.85 11.019 12.8468 10.9797C12.8415 10.9154 12.8351 10.8495 12.8415 10.7857C12.85 10.7146 12.782 10.6057 12.8845 10.5802C12.9902 10.5525 13.1124 10.5329 13.2224 10.5855C13.2702 10.6083 13.3079 10.6641 13.2904 10.7092C13.25 10.8229 13.2819 10.9382 13.2803 11.0609Z" fill="#079D3F"/>
<path fill-rule="evenodd" clip-rule="evenodd" d="M12.1592 10.8802C12.1762 10.7362 12.2394 10.6194 12.3972 10.6247C12.5486 10.6295 12.6293 10.7347 12.6293 10.8861C12.6293 11.0364 12.5592 11.14 12.3993 11.1389C12.2367 11.1379 12.1815 11.0199 12.1592 10.8802Z" fill="#15A24A"/>
<path fill-rule="evenodd" clip-rule="evenodd" d="M22.2725 13.579C22.2576 13.7219 22.1869 13.8298 22.0238 13.8441C21.8735 13.8563 21.7938 13.7703 21.7821 13.629C21.7688 13.4861 21.9091 13.3495 22.052 13.3506C22.1774 13.3517 22.2693 13.4425 22.2725 13.579Z" fill="#11A147"/>
<path fill-rule="evenodd" clip-rule="evenodd" d="M19.2901 11.9163C19.4102 12.013 19.2646 12.0768 19.2593 12.1581C19.1594 12.1118 19.0346 12.1304 18.9539 12.0428C18.8678 11.9493 18.8837 11.8436 18.94 11.7405C19.0022 11.6316 19.0978 11.5849 19.2152 11.6263C19.3225 11.6645 19.4028 11.7368 19.3507 11.8728C19.2684 11.8877 19.2009 11.7793 19.0851 11.8521C19.1621 11.8877 19.2545 11.8383 19.2901 11.9163Z" fill="#0C9F43"/>
<path fill-rule="evenodd" clip-rule="evenodd" d="M16.4001 10.822C16.3299 10.9043 16.2784 10.8724 16.2301 10.8735C16.1833 10.8735 16.1334 10.8347 16.0755 10.8831C16.1275 10.9681 16.2534 10.9134 16.3023 10.9978C16.2954 11.01 16.2922 11.0265 16.2832 11.035C16.2131 11.0903 16.101 10.9564 16.0574 11.0669C16.0176 11.162 16.1222 11.129 16.1674 11.145C16.2184 11.1652 16.2816 11.1577 16.3432 11.2268C16.2003 11.2895 16.0298 11.2603 15.9708 11.1912C15.8778 11.0823 15.9432 10.8889 16.0138 10.7922C16.0972 10.678 16.2497 10.7896 16.4001 10.822Z" fill="#19A44D"/>
<path fill-rule="evenodd" clip-rule="evenodd" d="M17.3056 11.2841C17.185 11.2714 17.048 11.1864 17.0134 11.3851C17.0124 11.3914 16.9704 11.4005 16.9577 11.392C16.9433 11.384 16.9354 11.3543 16.938 11.3373C16.9694 11.2114 16.9853 11.0764 17.0411 10.9633C17.1059 10.8358 17.2158 10.9436 17.3067 10.9558C17.4151 10.9702 17.4751 11.036 17.4634 11.1503C17.4528 11.2485 17.3784 11.2751 17.3056 11.2841Z" fill="#0D9F44"/>
<path fill-rule="evenodd" clip-rule="evenodd" d="M18.7427 11.5884C18.731 11.7483 18.6524 11.8588 18.4925 11.8635C18.3496 11.8689 18.2694 11.7684 18.2726 11.6261C18.2768 11.472 18.3517 11.3604 18.518 11.3557C18.6705 11.3504 18.7294 11.4529 18.7427 11.5884Z" fill="#0FA046"/>
<path fill-rule="evenodd" clip-rule="evenodd" d="M15.1616 11.0115C15.1441 11.0493 15.1297 11.1029 15.0793 11.0907C14.9916 11.07 15.0309 10.9855 15.0097 10.9303C14.9449 10.867 14.9619 10.9542 14.9417 10.9701C14.9343 11.0094 14.9523 11.0694 14.8992 11.0774C14.8338 11.0854 14.8492 11.0227 14.8508 10.9855C14.8562 10.9079 14.8572 10.8267 14.8785 10.7523C14.8971 10.6885 14.8296 10.5711 14.9566 10.5701C15.0687 10.5695 15.0442 10.6838 15.0586 10.7523C15.0734 10.8309 15.0814 10.8644 15.1457 10.7863C15.2121 10.7688 15.2259 10.8171 15.2413 10.8639C15.2498 10.9319 15.2195 10.9791 15.1616 11.0115Z" fill="#0EA044"/>
<path fill-rule="evenodd" clip-rule="evenodd" d="M20.8198 12.9629C20.8591 12.9629 20.8989 13.015 20.9372 12.9704C20.9664 12.9369 20.9404 12.904 20.9143 12.8769C20.8952 12.8561 20.875 12.8365 20.857 12.8142C20.8028 12.7488 20.7268 12.6861 20.8017 12.5916C20.8697 12.505 20.9489 12.5262 21.0275 12.581C21.0418 12.6086 21.0371 12.6351 21.0222 12.6601C20.9643 12.751 21.0721 12.8062 21.07 12.8838C21.0865 12.9566 21.0971 13.0299 21.0169 13.0718C20.917 13.125 20.84 13.0761 20.7667 13.0123C20.7587 12.9704 20.7741 12.9496 20.8198 12.9629Z" fill="#10A146"/>
<path fill-rule="evenodd" clip-rule="evenodd" d="M19.2899 11.9163C19.249 11.945 19.1667 11.852 19.1693 11.9221C19.1746 12.0464 19.1125 12.0353 19.0546 11.9986C18.9765 11.9503 18.9722 11.8674 19.0216 11.7909C19.0694 11.716 19.1369 11.6724 19.2187 11.7335C19.2687 11.7702 19.3064 11.8254 19.3494 11.8727L19.2899 11.9163Z" fill="#ECF7F0"/>
<path fill-rule="evenodd" clip-rule="evenodd" d="M15.1965 10.8857C15.181 10.8529 15.164 10.8208 15.1455 10.7895C15.1641 10.7422 15.1811 10.6944 15.2034 10.6487C15.2236 10.6057 15.2587 10.5818 15.3081 10.5977C15.3633 10.6163 15.3591 10.6588 15.3559 10.7035C15.3442 10.8336 15.3336 10.9632 15.3235 11.0934C15.2459 11.1428 15.2263 11.0976 15.2135 11.0307C15.2039 10.9824 15.2289 10.9303 15.1965 10.8857Z" fill="#17A34C"/>
<path fill-rule="evenodd" clip-rule="evenodd" d="M21.0717 12.8831C21.0239 12.8342 20.9729 12.788 20.9283 12.7359C20.8762 12.6743 20.8964 12.6366 20.974 12.6265C21.0861 12.6514 21.1546 12.7056 21.1217 12.8342C21.1063 12.8501 21.0893 12.8671 21.0717 12.8831Z" fill="#D7EFE0"/>
<path fill-rule="evenodd" clip-rule="evenodd" d="M21.1218 12.8343C21.0703 12.7673 21.0565 12.6717 20.9741 12.6265L21.0294 12.5803C21.1186 12.6435 21.2817 12.6797 21.1218 12.8343Z" fill="#2BAB5B"/>
<path fill-rule="evenodd" clip-rule="evenodd" d="M21.6385 13.279C21.6316 13.2748 21.6226 13.2726 21.6194 13.2668C21.5769 13.1882 21.4361 13.1175 21.4839 13.0479C21.5439 12.964 21.6066 13.0633 21.6396 13.1351C21.6544 13.1653 21.6725 13.1951 21.6895 13.2264C21.672 13.244 21.6544 13.2615 21.6385 13.279Z" fill="#E6F5EC"/>
<path fill-rule="evenodd" clip-rule="evenodd" d="M20.8202 12.9628C20.8032 12.9793 20.7867 12.9963 20.767 13.0128C20.7447 12.9968 20.7139 12.9857 20.6996 12.9628C20.6725 12.9113 20.5949 12.8428 20.6847 12.8024C20.7601 12.7663 20.7601 12.8624 20.7846 12.9092C20.7947 12.9288 20.8074 12.9453 20.8202 12.9628Z" fill="#29AA59"/>
<path fill-rule="evenodd" clip-rule="evenodd" d="M15.1967 10.8857C15.2743 10.916 15.2334 10.9808 15.2344 11.0292C15.2387 11.0956 15.2621 11.1179 15.3242 11.0945C15.1946 11.2199 15.2111 11.0526 15.1611 11.0154C15.1744 10.9713 15.1845 10.9282 15.1967 10.8857Z" fill="#DDF1E4"/>
<path fill-rule="evenodd" clip-rule="evenodd" d="M14.939 10.9706V10.7996C15.0123 10.8229 15.0144 10.8745 15.007 10.9308C14.9847 10.9441 14.9613 10.9568 14.939 10.9706Z" fill="#6FC690"/>
<path fill-rule="evenodd" clip-rule="evenodd" d="M13.6152 10.7953C13.6227 10.7177 13.5855 10.6168 13.7178 10.6253C13.8145 10.6311 13.8846 10.6699 13.8899 10.7804C13.8952 10.8994 13.8256 10.9477 13.7156 10.9557C13.5759 10.9669 13.6328 10.8569 13.6152 10.7953Z" fill="#F5FBF7"/>
<path fill-rule="evenodd" clip-rule="evenodd" d="M19.7415 11.964C19.7968 11.9943 19.8812 12.0001 19.8993 12.0819C19.9083 12.1244 19.8717 12.1526 19.8339 12.1403C19.7638 12.1191 19.6709 12.118 19.6613 12.0192C19.6586 11.9905 19.6894 11.9544 19.7415 11.964Z" fill="#EFF8F3"/>
<path fill-rule="evenodd" clip-rule="evenodd" d="M18.0188 11.3106C18.0045 11.3658 17.9657 11.3849 17.9211 11.3685C17.861 11.3467 17.7643 11.3706 17.7633 11.2654C17.7611 11.2107 17.7983 11.1942 17.8483 11.2107C17.9141 11.2319 17.9938 11.2293 18.0188 11.3106Z" fill="#DEF2E5"/>
<path fill-rule="evenodd" clip-rule="evenodd" d="M13.0556 10.6567C13.1077 10.6631 13.1901 10.6355 13.1847 10.7242C13.1794 10.8018 13.1008 10.7896 13.0445 10.7906C12.9993 10.7922 12.9345 10.8156 12.9303 10.7343C12.9271 10.6376 13.0025 10.6679 13.0556 10.6567Z" fill="#F3FAF5"/>
<path fill-rule="evenodd" clip-rule="evenodd" d="M12.3838 10.7305C12.4799 10.7368 12.5278 10.7942 12.5315 10.8845C12.5368 10.9653 12.4969 11.0343 12.4141 11.0418C12.3184 11.0508 12.2754 10.978 12.2701 10.8893C12.2648 10.8075 12.2967 10.748 12.3838 10.7305Z" fill="#F3FAF6"/>
<path fill-rule="evenodd" clip-rule="evenodd" d="M22.1666 13.5977C22.1528 13.6858 22.0997 13.748 21.9971 13.748C21.9148 13.7469 21.884 13.6869 21.8925 13.6141C21.9004 13.5153 21.9594 13.4516 22.0598 13.4532C22.139 13.4553 22.1698 13.5121 22.1666 13.5977Z" fill="#F9FCFA"/>
<path fill-rule="evenodd" clip-rule="evenodd" d="M17.1809 11.0226C17.2345 11.0555 17.3424 11.0215 17.3578 11.1278C17.3626 11.1682 17.318 11.1889 17.2824 11.1809C17.2128 11.1655 17.1155 11.1905 17.107 11.0784C17.1054 11.0438 17.1209 11.0067 17.1809 11.0226Z" fill="#E7F5EC"/>
<path fill-rule="evenodd" clip-rule="evenodd" d="M18.6363 11.6012C18.6262 11.6931 18.581 11.7574 18.4881 11.7574C18.3967 11.7585 18.3643 11.6947 18.3685 11.6108C18.376 11.5183 18.4286 11.4567 18.5183 11.453C18.6076 11.4498 18.6363 11.521 18.6363 11.6012Z" fill="#F5FBF7"/>
</svg>
