<svg width="25" height="25" viewBox="0 0 25 25" fill="none" xmlns="http://www.w3.org/2000/svg">
<path d="M2.13037 12.0364C2.13037 16.7504 2.13037 19.1074 3.59437 20.5714C5.06037 22.0364 7.41637 22.0364 12.1304 22.0364C16.8444 22.0364 19.2014 22.0364 20.6654 20.5714C22.1304 19.1084 22.1304 16.7504 22.1304 12.0364V10.5364M13.6304 2.03638H12.1304C7.41637 2.03638 5.05937 2.03638 3.59437 3.50038C2.62137 4.47438 2.29437 5.84338 2.18537 8.03638" stroke="#A09F9F" stroke-width="1.5" stroke-linecap="round"/>
<path d="M16.7826 3.49138L17.4316 2.84238C17.9479 2.32613 18.6482 2.03616 19.3784 2.03625C20.1086 2.03635 20.8088 2.3265 21.3251 2.84288C21.8413 3.35925 22.1313 4.05956 22.1312 4.78973C22.1311 5.5199 21.8409 6.22013 21.3246 6.73637L20.6746 7.38538C20.6746 7.38538 19.2966 7.30438 18.0806 6.08738C16.8636 4.87138 16.7826 3.49238 16.7826 3.49238L10.8176 9.45638C10.4136 9.86038 10.2116 10.0624 10.0376 10.2854C9.83256 10.5474 9.65756 10.8324 9.51356 11.1334C9.39256 11.3884 9.30256 11.6594 9.12156 12.2014L8.54256 13.9364M8.54256 13.9364L8.16856 15.0584C8.12457 15.1892 8.11796 15.3298 8.14947 15.4642C8.18098 15.5986 8.24937 15.7215 8.34693 15.8192C8.44449 15.9169 8.56737 15.9854 8.70174 16.017C8.83612 16.0487 8.97665 16.0422 9.10756 15.9984L10.2306 15.6244M8.54256 13.9364L10.2306 15.6244M20.6756 7.38438L17.6926 10.3664M14.7106 13.3494C14.3066 13.7534 14.1046 13.9554 13.8816 14.1294C13.6188 14.3343 13.3344 14.51 13.0336 14.6534C12.7786 14.7744 12.5076 14.8644 11.9656 15.0454L10.2306 15.6244" stroke="#A09F9F" stroke-width="1.5" stroke-linecap="round"/>
</svg>
