
<svg width="33" height="36" viewBox="0 0 33 36" fill="none" xmlns="http://www.w3.org/2000/svg">
<path d="M24.9752 22.3906C20.8867 22.3906 17.5752 25.4356 17.5752 29.1952C17.5752 32.9547 20.8867 35.9998 24.9752 35.9998C29.0637 35.9998 32.3752 32.9547 32.3752 29.1952C32.3752 25.4356 29.0637 22.3906 24.9752 22.3906ZM27.9352 31.985C27.6577 32.2402 27.3062 32.3593 26.9547 32.3593C26.6032 32.3593 26.2517 32.2402 25.9742 31.985L24.9937 31.0834L23.9762 32.0191C23.6987 32.2742 23.3472 32.3933 22.9957 32.3933C22.6442 32.3933 22.2927 32.2742 22.0152 32.0191C21.7572 31.779 21.6124 31.455 21.6124 31.1175C21.6124 30.7799 21.7572 30.4559 22.0152 30.2159L23.0327 29.2802L22.0522 28.3786C21.7942 28.1385 21.6494 27.8146 21.6494 27.477C21.6494 27.1394 21.7942 26.8155 22.0522 26.5754C22.5887 26.0821 23.4767 26.0821 24.0132 26.5754L24.9937 27.494L25.9187 26.6434C26.4552 26.1501 27.3432 26.1501 27.8797 26.6434C28.4162 27.1368 28.4162 27.9533 27.8797 28.4467L26.9547 29.2972L27.9352 30.1988C28.4717 30.6922 28.4717 31.4917 27.9352 31.985V31.985Z" fill="#F75B7E"/>
<path d="M21.1981 4.48801V2.08301C21.1981 1.45092 20.6739 0.926758 20.0419 0.926758C19.4098 0.926758 18.8856 1.45092 18.8856 2.08301V4.39551H8.86477V2.08301C8.86477 1.45092 8.34061 0.926758 7.70852 0.926758C7.07644 0.926758 6.55227 1.45092 6.55227 2.08301V4.48801C2.38977 4.87342 0.370191 7.35551 0.0618572 11.0401C0.0310239 11.4872 0.401024 11.8572 0.832691 11.8572H26.9177C27.3648 11.8572 27.7348 11.4718 27.6885 11.0401C27.3802 7.35551 25.3606 4.87342 21.1981 4.48801V4.48801Z" fill="#F75B7E"/>
<path d="M24.6667 22.1245C21.2596 22.1245 18.5 24.8841 18.5 28.2912C18.5 29.4474 18.8237 30.542 19.3942 31.467C19.9377 32.3804 20.7096 33.1366 21.6341 33.661C22.5586 34.1854 23.6038 34.4601 24.6667 34.4578C26.9175 34.4578 28.8754 33.2553 29.9392 31.467C30.5096 30.542 30.8333 29.4474 30.8333 28.2912C30.8333 24.8841 28.0737 22.1245 24.6667 22.1245ZM27.8579 27.6283L24.5742 30.6653C24.3583 30.8658 24.0654 30.9737 23.7879 30.9737C23.495 30.9737 23.2021 30.8658 22.9708 30.6345L21.4446 29.1083C21.2296 28.8907 21.109 28.5971 21.109 28.2912C21.109 27.9853 21.2296 27.6917 21.4446 27.4741C21.8917 27.027 22.6317 27.027 23.0787 27.4741L23.8188 28.2141L26.2854 25.9324C26.7479 25.5008 27.4879 25.5316 27.9196 25.9941C28.3512 26.4566 28.3204 27.1812 27.8579 27.6283Z" fill="#F75B7E"/>
<path d="M26.2083 14.1694H1.54167C0.69375 14.1694 0 14.8632 0 15.7111V25.2078C0 29.8328 2.3125 32.9161 7.70833 32.9161H15.3088C16.3725 32.9161 17.1125 31.8832 16.7733 30.8811C16.465 29.9869 16.2029 29.0003 16.2029 28.2911C16.2029 23.6199 20.0108 19.8119 24.6821 19.8119C25.1292 19.8119 25.5763 19.8428 26.0079 19.9198C26.9329 20.0586 27.7654 19.334 27.7654 18.409V15.7265C27.7614 15.3148 27.5961 14.9211 27.3049 14.6299C27.0138 14.3388 26.6201 14.1735 26.2083 14.1694V14.1694ZM9.57375 27.0732C9.28083 27.3507 8.88 27.5203 8.47917 27.5203C8.07833 27.5203 7.6775 27.3507 7.38458 27.0732C7.10708 26.7803 6.9375 26.3794 6.9375 25.9786C6.9375 25.5778 7.10708 25.1769 7.38458 24.884C7.53875 24.7453 7.69292 24.6374 7.89333 24.5603C8.46375 24.3136 9.14208 24.4524 9.57375 24.884C9.85125 25.1769 10.0208 25.5778 10.0208 25.9786C10.0208 26.3794 9.85125 26.7803 9.57375 27.0732V27.0732ZM9.57375 21.6774L9.3425 21.8624C9.25 21.924 9.1575 21.9703 9.065 22.0011C8.9725 22.0474 8.88 22.0782 8.7875 22.0936C8.67958 22.109 8.57167 22.1244 8.47917 22.1244C8.07833 22.1244 7.6775 21.9549 7.38458 21.6774C7.10708 21.3844 6.9375 20.9836 6.9375 20.5828C6.9375 20.1819 7.10708 19.7811 7.38458 19.4882C7.73917 19.1336 8.27875 18.964 8.7875 19.0719C8.88 19.0874 8.9725 19.1182 9.065 19.1644C9.1575 19.1953 9.25 19.2415 9.3425 19.3032L9.57375 19.4882C9.85125 19.7811 10.0208 20.1819 10.0208 20.5828C10.0208 20.9836 9.85125 21.3844 9.57375 21.6774ZM14.9696 21.6774C14.6767 21.9549 14.2758 22.1244 13.875 22.1244C13.4742 22.1244 13.0733 21.9549 12.7804 21.6774C12.5029 21.3844 12.3333 20.9836 12.3333 20.5828C12.3333 20.1819 12.5029 19.7811 12.7804 19.4882C13.3663 18.9178 14.3992 18.9178 14.9696 19.4882C15.2471 19.7811 15.4167 20.1819 15.4167 20.5828C15.4167 20.9836 15.2471 21.3844 14.9696 21.6774V21.6774Z" fill="#F75B7E"/>
</svg>
