<svg width="40" height="24" viewBox="0 0 40 24" fill="none" xmlns="http://www.w3.org/2000/svg">
<path d="M10.5873 2.67422L11.1304 0.909546H5.33391L4.13037 4.90947H7.6639C9.18481 4.91888 10.1738 4.0189 10.5873 2.67422Z" fill="#1E1E1E"/>
<path d="M38.8527 5.90955H32.9724L29.5179 14.9095H28.5859L29.353 5.90955H18.501L14.9497 14.9095H14.023L14.7911 5.90955H3.56789L0.130371 17.4756H6.10107L8.27253 9.76491L8.13528 7.19429H8.39062L9.17792 9.76491L9.35878 12.8503C9.53965 15.9369 11.5302 17.479 14.4252 17.479H18.4063L22.8386 9.76831L22.7014 7.19769H22.9567L23.744 9.76831L23.9249 12.8537C24.0983 15.811 25.9335 17.3498 28.6327 17.4734V17.4824C28.6327 17.4824 27.8156 19.5065 24.6451 19.5065C22.9748 19.5065 21.4789 19.2173 19.5522 18.4463L17.7776 21.585C20.0394 23.0738 22.6631 23.9095 24.8345 23.9095C28.7253 23.9095 31.9979 21.9206 33.8097 18.0517L31.601 17.7206L31.667 17.4802L37.6558 16.1954L39.1304 13.6237H35.662L38.8527 5.90955Z" fill="#1E1E1E"/>
</svg>
