<svg width="37" height="37" viewBox="0 0 37 37" fill="none" xmlns="http://www.w3.org/2000/svg">
<path opacity="0.4" d="M28.7812 10.4282C28.6522 10.4101 28.5211 10.4101 28.3921 10.4282C27.0084 10.384 25.6968 9.81586 24.7353 8.84416C23.7738 7.87247 23.2381 6.57366 23.2417 5.22313C23.2417 2.34951 25.6317 0 28.5959 0C31.5416 0 33.9501 2.33143 33.9501 5.22313C33.9461 6.57451 33.4054 7.8718 32.4415 8.84242C31.4777 9.81304 30.1656 10.3814 28.7812 10.4282V10.4282Z" fill="#5D9EFB"/>
<path opacity="0.4" d="M34.8208 22.9527C32.7458 24.3082 29.8371 24.8142 27.1507 24.4709C27.8547 22.9889 28.2253 21.3442 28.2438 19.6092C28.2438 17.8019 27.8362 16.0849 27.0581 14.5849C29.8 14.2234 32.7087 14.7294 34.8022 16.0849C37.7294 17.9645 37.7294 21.055 34.8208 22.9527Z" fill="#5D9EFB"/>
<path opacity="0.4" d="M8.23485 10.4282C8.36453 10.4101 8.49422 10.4101 8.62391 10.4282C10.0076 10.384 11.3192 9.81586 12.2807 8.84416C13.2422 7.87247 13.7779 6.57366 13.7743 5.22313C13.7743 2.34951 11.3844 0 8.42011 0C5.47438 0 3.06592 2.33143 3.06592 5.22313C3.06988 6.57451 3.61061 7.8718 4.57449 8.84242C5.53838 9.81304 6.85038 10.3814 8.23485 10.4282V10.4282Z" fill="#5D9EFB"/>
<path opacity="0.4" d="M8.43888 19.6095C8.43888 21.3626 8.82794 23.0253 9.53195 24.5254C6.9197 24.7965 4.19628 24.2543 2.19541 22.9711C-0.731802 21.0735 -0.731802 17.9829 2.19541 16.0853C4.17775 14.784 6.97528 14.2599 9.60606 14.5491C8.84646 16.0672 8.43888 17.7841 8.43888 19.6095V19.6095Z" fill="#5D9EFB"/>
<path d="M18.7585 25.0676C18.5985 25.0495 18.4369 25.0495 18.2769 25.0676C16.6296 25.0136 15.0684 24.3365 13.9239 23.1795C12.7793 22.0225 12.1412 20.4764 12.1445 18.8685C12.1445 15.4346 14.9791 12.6514 18.5177 12.6514C22.0378 12.6514 24.8909 15.4346 24.8909 18.8685C24.8909 22.2301 22.186 24.9592 18.7585 25.0676V25.0676Z" fill="#5D9EFB"/>
<path d="M12.7373 28.8084C9.93978 30.6338 9.93978 33.6339 12.7373 35.4412C15.9239 37.5196 21.1484 37.5196 24.335 35.4412C27.1325 33.6158 27.1325 30.6157 24.335 28.8084C21.1669 26.73 15.9424 26.73 12.7373 28.8084V28.8084Z" fill="#5D9EFB"/>
</svg>
